<mxfile host="app.diagrams.net" modified="2021-12-23T19:04:50.672Z" agent="5.0 (Windows NT 10.0; Win64; x64) AppleWebKit/537.36 (KHTML, like Gecko) Chrome/96.0.4664.110 Safari/537.36" etag="Nc9uafH8JHGSglVAylgm" version="16.0.3" type="github">
  <diagram id="R2lEEEUBdFMjLlhIrx00" name="Page-1">
    <mxGraphModel dx="868" dy="450" grid="1" gridSize="10" guides="1" tooltips="1" connect="1" arrows="1" fold="1" page="1" pageScale="1" pageWidth="850" pageHeight="1100" math="0" shadow="0" extFonts="Permanent Marker^https://fonts.googleapis.com/css?family=Permanent+Marker">
      <root>
        <mxCell id="0" />
        <mxCell id="1" parent="0" />
        <mxCell id="tCllUWHB2WlahxyKgNkf-1" value="usuarios" style="rounded=0;whiteSpace=wrap;html=1;fillColor=#fff2cc;strokeColor=#d6b656;" vertex="1" parent="1">
          <mxGeometry x="40" y="40" width="120" height="40" as="geometry" />
        </mxCell>
        <mxCell id="tCllUWHB2WlahxyKgNkf-2" value="Categorias" style="rounded=0;whiteSpace=wrap;html=1;fillColor=#ffe6cc;strokeColor=#d79b00;" vertex="1" parent="1">
          <mxGeometry x="40" y="320" width="120" height="40" as="geometry" />
        </mxCell>
        <mxCell id="tCllUWHB2WlahxyKgNkf-3" value="Posts" style="rounded=0;whiteSpace=wrap;html=1;fillColor=#ffe6cc;strokeColor=#d79b00;" vertex="1" parent="1">
          <mxGeometry x="360" y="200" width="120" height="40" as="geometry" />
        </mxCell>
        <mxCell id="tCllUWHB2WlahxyKgNkf-4" value="Etiquetas" style="rounded=0;whiteSpace=wrap;html=1;fillColor=#ffe6cc;strokeColor=#d79b00;" vertex="1" parent="1">
          <mxGeometry x="700" y="320" width="120" height="40" as="geometry" />
        </mxCell>
        <mxCell id="tCllUWHB2WlahxyKgNkf-5" value="Comentarios" style="rounded=0;whiteSpace=wrap;html=1;fillColor=#ffe6cc;strokeColor=#d79b00;" vertex="1" parent="1">
          <mxGeometry x="680" y="40" width="120" height="40" as="geometry" />
        </mxCell>
        <mxCell id="tCllUWHB2WlahxyKgNkf-6" value="Escribe" style="shape=rhombus;perimeter=rhombusPerimeter;whiteSpace=wrap;html=1;align=center;fillColor=#dae8fc;strokeColor=#6c8ebf;" vertex="1" parent="1">
          <mxGeometry x="45" y="195" width="110" height="50" as="geometry" />
        </mxCell>
        <mxCell id="tCllUWHB2WlahxyKgNkf-7" value="Escribe" style="shape=rhombus;perimeter=rhombusPerimeter;whiteSpace=wrap;html=1;align=center;fillColor=#dae8fc;strokeColor=#6c8ebf;" vertex="1" parent="1">
          <mxGeometry x="365" y="35" width="110" height="50" as="geometry" />
        </mxCell>
        <mxCell id="tCllUWHB2WlahxyKgNkf-12" value="Tiene" style="shape=rhombus;perimeter=rhombusPerimeter;whiteSpace=wrap;html=1;align=center;fillColor=#dae8fc;strokeColor=#6c8ebf;" vertex="1" parent="1">
          <mxGeometry x="680" y="195" width="120" height="50" as="geometry" />
        </mxCell>
        <mxCell id="tCllUWHB2WlahxyKgNkf-13" value="" style="endArrow=none;html=1;rounded=0;" edge="1" parent="1">
          <mxGeometry relative="1" as="geometry">
            <mxPoint x="100" y="190" as="sourcePoint" />
            <mxPoint x="99.5" y="80" as="targetPoint" />
          </mxGeometry>
        </mxCell>
        <mxCell id="tCllUWHB2WlahxyKgNkf-16" value="" style="endArrow=none;html=1;rounded=0;exitX=0.5;exitY=0;exitDx=0;exitDy=0;" edge="1" parent="1" source="tCllUWHB2WlahxyKgNkf-12">
          <mxGeometry relative="1" as="geometry">
            <mxPoint x="740" y="140" as="sourcePoint" />
            <mxPoint x="740" y="80" as="targetPoint" />
          </mxGeometry>
        </mxCell>
        <mxCell id="tCllUWHB2WlahxyKgNkf-18" value="1:N" style="text;html=1;align=center;verticalAlign=middle;resizable=0;points=[];autosize=1;strokeColor=none;fillColor=none;" vertex="1" parent="1">
          <mxGeometry x="130" y="190" width="30" height="20" as="geometry" />
        </mxCell>
        <mxCell id="tCllUWHB2WlahxyKgNkf-19" value="1:N" style="text;html=1;align=center;verticalAlign=middle;resizable=0;points=[];autosize=1;strokeColor=none;fillColor=none;" vertex="1" parent="1">
          <mxGeometry x="405" y="10" width="30" height="20" as="geometry" />
        </mxCell>
        <mxCell id="tCllUWHB2WlahxyKgNkf-22" value="" style="endArrow=none;html=1;rounded=0;entryX=0;entryY=0.5;entryDx=0;entryDy=0;" edge="1" parent="1" target="tCllUWHB2WlahxyKgNkf-7">
          <mxGeometry relative="1" as="geometry">
            <mxPoint x="160" y="59.5" as="sourcePoint" />
            <mxPoint x="360" y="60" as="targetPoint" />
          </mxGeometry>
        </mxCell>
        <mxCell id="tCllUWHB2WlahxyKgNkf-23" value="" style="endArrow=none;html=1;rounded=0;entryX=0;entryY=0.5;entryDx=0;entryDy=0;" edge="1" parent="1" target="tCllUWHB2WlahxyKgNkf-5">
          <mxGeometry relative="1" as="geometry">
            <mxPoint x="475" y="59.5" as="sourcePoint" />
            <mxPoint x="635" y="59.5" as="targetPoint" />
          </mxGeometry>
        </mxCell>
        <mxCell id="tCllUWHB2WlahxyKgNkf-24" value="1:N" style="text;html=1;align=center;verticalAlign=middle;resizable=0;points=[];autosize=1;strokeColor=none;fillColor=none;" vertex="1" parent="1">
          <mxGeometry x="680" y="180" width="30" height="20" as="geometry" />
        </mxCell>
        <mxCell id="tCllUWHB2WlahxyKgNkf-25" value="" style="endArrow=none;html=1;rounded=0;exitX=1;exitY=0.5;exitDx=0;exitDy=0;entryX=0;entryY=0.5;entryDx=0;entryDy=0;" edge="1" parent="1" source="tCllUWHB2WlahxyKgNkf-3" target="tCllUWHB2WlahxyKgNkf-12">
          <mxGeometry relative="1" as="geometry">
            <mxPoint x="520" y="214.5" as="sourcePoint" />
            <mxPoint x="680" y="214.5" as="targetPoint" />
          </mxGeometry>
        </mxCell>
        <mxCell id="tCllUWHB2WlahxyKgNkf-26" value="" style="endArrow=none;html=1;rounded=0;exitX=1;exitY=0.5;exitDx=0;exitDy=0;entryX=0;entryY=0.5;entryDx=0;entryDy=0;exitPerimeter=0;" edge="1" parent="1" source="tCllUWHB2WlahxyKgNkf-6" target="tCllUWHB2WlahxyKgNkf-3">
          <mxGeometry relative="1" as="geometry">
            <mxPoint x="155" y="214.5" as="sourcePoint" />
            <mxPoint x="355" y="214.5" as="targetPoint" />
          </mxGeometry>
        </mxCell>
        <mxCell id="tCllUWHB2WlahxyKgNkf-27" value="Tiene" style="shape=rhombus;perimeter=rhombusPerimeter;whiteSpace=wrap;html=1;align=center;fillColor=#dae8fc;strokeColor=#6c8ebf;" vertex="1" parent="1">
          <mxGeometry x="250" y="315" width="110" height="50" as="geometry" />
        </mxCell>
        <mxCell id="tCllUWHB2WlahxyKgNkf-36" value="" style="edgeStyle=orthogonalEdgeStyle;rounded=0;orthogonalLoop=1;jettySize=auto;html=1;" edge="1" parent="1" source="tCllUWHB2WlahxyKgNkf-28" target="tCllUWHB2WlahxyKgNkf-4">
          <mxGeometry relative="1" as="geometry" />
        </mxCell>
        <mxCell id="tCllUWHB2WlahxyKgNkf-28" value="Tiene" style="shape=rhombus;perimeter=rhombusPerimeter;whiteSpace=wrap;html=1;align=center;fillColor=#dae8fc;strokeColor=#6c8ebf;" vertex="1" parent="1">
          <mxGeometry x="480" y="315" width="110" height="50" as="geometry" />
        </mxCell>
        <mxCell id="tCllUWHB2WlahxyKgNkf-29" value="1:N" style="text;html=1;align=center;verticalAlign=middle;resizable=0;points=[];autosize=1;strokeColor=none;fillColor=none;" vertex="1" parent="1">
          <mxGeometry x="255" y="300" width="30" height="20" as="geometry" />
        </mxCell>
        <mxCell id="tCllUWHB2WlahxyKgNkf-30" value="1:N" style="text;html=1;align=center;verticalAlign=middle;resizable=0;points=[];autosize=1;strokeColor=none;fillColor=none;" vertex="1" parent="1">
          <mxGeometry x="530" y="300" width="30" height="20" as="geometry" />
        </mxCell>
        <mxCell id="tCllUWHB2WlahxyKgNkf-31" value="" style="endArrow=none;html=1;rounded=0;entryX=0;entryY=0.5;entryDx=0;entryDy=0;" edge="1" parent="1" target="tCllUWHB2WlahxyKgNkf-27">
          <mxGeometry relative="1" as="geometry">
            <mxPoint x="160" y="339.5" as="sourcePoint" />
            <mxPoint x="230" y="340" as="targetPoint" />
          </mxGeometry>
        </mxCell>
        <mxCell id="tCllUWHB2WlahxyKgNkf-33" value="" style="endArrow=none;html=1;rounded=0;entryX=0;entryY=1;entryDx=0;entryDy=0;exitX=1;exitY=0.5;exitDx=0;exitDy=0;" edge="1" parent="1" source="tCllUWHB2WlahxyKgNkf-27" target="tCllUWHB2WlahxyKgNkf-3">
          <mxGeometry relative="1" as="geometry">
            <mxPoint x="380" y="300" as="sourcePoint" />
            <mxPoint x="480" y="300.5" as="targetPoint" />
          </mxGeometry>
        </mxCell>
        <mxCell id="tCllUWHB2WlahxyKgNkf-35" value="" style="endArrow=none;html=1;rounded=0;entryX=0;entryY=1;entryDx=0;entryDy=0;exitX=0;exitY=0.5;exitDx=0;exitDy=0;" edge="1" parent="1" source="tCllUWHB2WlahxyKgNkf-28">
          <mxGeometry relative="1" as="geometry">
            <mxPoint x="480" y="310" as="sourcePoint" />
            <mxPoint x="480" y="245" as="targetPoint" />
          </mxGeometry>
        </mxCell>
      </root>
    </mxGraphModel>
  </diagram>
</mxfile>
